<svg xmlns="http://www.w3.org/2000/svg" width="37.227" height="36.711" viewBox="0 0 37.227 36.711">
  <g id="Icon_ionic-ios-chatboxes" data-name="Icon ionic-ios-chatboxes" transform="translate(-8.781 -11.307)">
    <path id="Path_83" data-name="Path 83" d="M44.161,11.981H16.45a4.771,4.771,0,0,0-4.764,4.764v19.3a4.76,4.76,0,0,0,4.764,4.752H32.306a1.367,1.367,0,0,1,.95.4l7.878,7.265c.438.425,1.163.25,1.163-.363V41.769c0-.75.475-.988,1.225-.988h.125c2.626,0,5.265-2.113,5.265-4.752V16.746A4.745,4.745,0,0,0,44.161,11.981Z" transform="translate(-2.905 -0.675)" fill="#fff"/>
  </g>
</svg>
