<?xml version="1.0" encoding="UTF-8"?><svg id="Layer_2" xmlns="http://www.w3.org/2000/svg" viewBox="0 0 11.25 11.25"><defs><style>.cls-1{fill:#333;}.cls-2{fill:#a6aeb0;}.cls-3{fill:#b0bdc6;}.cls-4{fill:#dfe9ef;}.cls-5{fill:#575b5e;}.cls-6{isolation:isolate;opacity:.6;}</style></defs><g id="Layer_1-2"><g><rect class="cls-3" x="3.3" y="7.06" width=".77" height="1.01" transform="translate(-4.27 4.82) rotate(-45.01)"/><rect class="cls-4" x="3.3" y="7.3" width=".77" height=".52" transform="translate(-4.27 4.82) rotate(-44.98)"/><rect class="cls-3" x="3.68" y="6.9" width=".32" height="1.01" transform="translate(-4.11 4.89) rotate(-44.99)"/><path class="cls-4" d="M4.24,1.68C5.71,.2,8.1,.2,9.57,1.68c1.47,1.47,1.47,3.86,0,5.33-1.47,1.47-3.86,1.47-5.33,0-1.47-1.47-1.47-3.86,0-5.33Zm-.4,5.74c1.7,1.7,4.44,1.7,6.14,0,1.7-1.7,1.7-4.45,0-6.14C8.28-.42,5.53-.42,3.84,1.27c-1.7,1.7-1.7,4.45,0,6.14Z"/><path class="cls-3" d="M4.35,1.78c1.41-1.41,3.7-1.41,5.12,0,1.41,1.41,1.41,3.7,0,5.12-1.41,1.41-3.7,1.41-5.12,0-1.41-1.41-1.41-3.7,0-5.12Zm-.2,5.32c1.53,1.53,4,1.53,5.53,0,1.53-1.53,1.53-4,0-5.53C8.14,.05,5.67,.05,4.14,1.58c-1.53,1.53-1.53,4,0,5.53Z"/><g class="cls-6"><path class="cls-2" d="M4.86,5.21c1.22,1.22,3.2,1.22,4.42,0,.32-.32,.56-.7,.71-1.1,.08,.89-.22,1.82-.9,2.5-1.22,1.22-3.2,1.22-4.42,0-.9-.9-1.13-2.21-.71-3.32,.07,.7,.37,1.38,.9,1.92Z"/></g><rect class="cls-1" x=".39" y="8.12" width="3.65" height="1.84" transform="translate(-5.74 4.21) rotate(-45)"/><rect class="cls-5" x=".39" y="8.53" width="3.65" height="1.01" transform="translate(-5.74 4.21) rotate(-44.99)"/><path class="cls-3" d="M.02,9.55c-.21,.21,1.47,1.89,1.68,1.68l.13-.13c.21-.21-1.47-1.89-1.68-1.68l-.13,.13Z"/><path class="cls-4" d="M.3,9.83c-.21,.21,.91,1.34,1.12,1.12l.13-.13c.21-.21-.91-1.34-1.12-1.12l-.13,.13Z"/></g></g></svg>